<svg xmlns="http://www.w3.org/2000/svg" version="1.1" xmlns:xlink="http://www.w3.org/1999/xlink" xmlns:svgjs="http://svgjs.dev/svgjs" viewBox="0 0 800 800" opacity="0.1"><g stroke-width="1" stroke="hsl(265, 55%, 20%)" fill="none"><path d="M1127.7841564609007 23.712029175201792C1254.750801480161 339.7992058849104 1434.0739015037616 1081.946720692697 1288.9929788303439 1254.4886877845547C1143.9120561569262 1427.030654876412 800.7866266696567 986.5747581662727 431.39572762849457 851.9134712161165C62.004828587332895 717.2521842659603 -341.5242120296857 875.2507461242583 -484.08333656723096 608.114510423803C-626.6424611047762 340.9782747233478 -495.3123241736219 -248.91457038651674 -252.88807015172029 -430.3404601460695C-10.463816129818497 -611.7663499056223 391.9130355269324 -357.32402903064684 679.5530827378952 -262.72976042204914C967.1931299488583 -168.13549181345138 1000.8175114416408 -292.37514753450716 1127.7841564609007 23.712029175201792C1254.750801480161 339.7992058849104 1434.0739015037616 1081.946720692697 1288.9929788303439 1254.4886877845547 "></path><path d="M1096.1413378588304 40.07245003647017C1217.5876939642094 342.4167060196701 1389.1141374650451 1052.2969375749437 1250.3410809948195 1217.3370800106338C1111.5680245245937 1382.3772224463237 783.3610919715532 961.0715821148856 430.0306668017463 832.26513372778C76.70024163193943 703.458685340674 -309.2840580886872 854.5877445094809 -445.6449598202522 599.0661277525237C-582.0058615518172 343.54451099556627 -456.38573057419137 -220.7008191095215 -224.5016615097636 -394.2386267056154C7.3824075546640415 -567.7764343017093 392.2646134872084 -324.3968230299937 667.398571688999 -233.91534870872624C942.5325298907896 -143.4338743874589 974.6949817534514 -262.2718059467296 1096.1413378588304 40.07245003647017C1217.5876939642094 342.4167060196701 1389.1141374650451 1052.2969375749437 1250.3410809948195 1217.3370800106338 "></path><path d="M1064.49851925676 56.432779345004064C1180.4245864482582 345.0341146016949 1344.1543734263287 1022.6470629044563 1211.689183159295 1180.1853806839786C1079.2239928922613 1337.7236984635006 765.9355572734498 935.5683145107644 428.665605974998 812.6167046867088C91.39565467654586 689.6650948626534 -277.04390414768864 833.9246513419687 -407.2065830732734 590.0176535285098C-537.3692619988583 346.1106557150506 -417.4591369747608 -192.4871593852606 -196.11525286780704 -358.1368848178957C25.228631239146694 -523.7866102505308 392.6161914474844 -291.469708582075 655.2440606401028 -205.10102854813795C917.8719298327214 -118.7323485142008 948.5724520652616 -232.16855591168655 1064.49851925676 56.432779345004064C1180.4245864482582 345.0341146016949 1344.1543734263287 1022.6470629044563 1211.689183159295 1180.1853806839786 "></path><path d="M1032.8557311722677 72.79307813596006C1143.2615094498854 347.6514926661416 1299.1946399051903 992.9971577163908 1173.0373158413486 1143.033650839745C1046.879991777507 1293.0701439630993 748.5100530929246 910.065016389065 427.30057566582764 792.9682451280598C106.09109823873041 675.8714738670544 -244.80371968911186 813.2615276568788 -368.7681758087165 580.9691487869177C-492.7326319283211 348.6767699169566 -378.53251285775207 -164.27353017857774 -167.72881370827236 -322.03517344775406C43.07488544120747 -479.7968167169304 392.96779992533857 -258.54262465173434 643.0895801087847 -176.28673890512755C893.2113602922309 -94.03085315852093 922.4499528946503 -202.0653363942215 1032.8557311722677 72.79307813596006C1143.2615094498854 347.6514926661416 1299.1946399051903 992.9971577163908 1173.0373158413486 1143.033650839745 "></path><path d="M1001.2129430877753 89.15349899722844C1106.098432451512 350.26899280090083 1254.2349063840518 963.3473745986375 1134.3854485234024 1105.882043065824C1014.535990662753 1248.4167115330108 731.0845489123997 884.5618403376782 425.93554535665726 773.3199076397232C120.78654180091507 662.0779749417679 -212.5635352305352 792.5985260421012 -330.32976854415955 571.9207661156383C-448.0960018577839 351.24300618917505 -339.60588874074335 -136.0597789015825 -139.34237454873767 -285.9333400073C60.921139643268134 -435.80690111301743 393.31940840319294 -225.6154186510812 630.9350995774666 -147.47232719180488C868.5507907517404 -69.32923573252856 896.3274537240391 -171.96199480644407 1001.2129430877753 89.15349899722844C1106.098432451512 350.26899280090083 1254.2349063840518 963.3473745986375 1134.3854485234024 1105.882043065824 "></path><path d="M969.5702465560175 105.51379778818432C1068.9354470058731 352.8863708653479 1209.2752644156478 933.6974694105718 1095.7336727581903 1068.730313221591C982.192081100733 1203.76315703261 713.6591362846088 859.0585422159788 424.57060660022125 753.671448081074C135.4820769158339 648.2843539461694 -180.32325921922416 771.9354023570113 -291.89126972686825 562.872261374046C-403.4592802345124 353.80912039108125 -300.67917307100026 -107.84614969489962 -110.95584383646849 -249.83162863715836C78.76748539806317 -391.81710757941704 393.6711084337812 -192.6883347207406 618.7807105988829 -118.65803754879448C843.8903127639842 -44.62774037684858 870.205046106162 -141.85877528897913 969.5702465560175 105.51379778818432C1068.9354470058731 352.8863708653479 1209.2752644156478 933.6974694105718 1095.7336727581903 1068.730313221591 "></path><path d="M937.9274584715254 121.87409657914031C1031.7723700075 355.5037489297947 1164.3155308945093 904.0475642225065 1057.081805440244 1031.5785833773575C949.8480799859788 1159.1096025322088 696.2336321040839 833.5552440942795 423.20557629105133 734.0229885224251C150.17752047801855 634.4907329505704 -148.0830747606475 751.2722786719214 -253.45286246231137 553.8237566324542C-358.82265016397525 356.37523459298734 -261.7525489539916 -79.63252048821687 -82.5694046769338 -213.72991726701673C96.61373960012395 -347.8273140458166 394.0227169116356 -159.76125079039997 606.6262300675646 -89.84374790578431C819.2297432234939 -19.926245021168484 844.0825469355505 -111.75555577151408 937.9274584715254 121.87409657914031C1031.7723700075 355.5037489297947 1164.3155308945093 904.0475642225065 1057.081805440244 1031.5785833773575 "></path><path d="M906.2846398694548 138.23451744040858C994.6092624915489 358.1212490645539 1119.3557668557928 874.3977811047532 1018.4299076047196 994.4269756034366C917.5040483536463 1114.45617010212 678.8080974059803 808.0520680428926 421.8405154643026 714.3746510340884C164.87293352262498 620.6972340252842 -115.8429208196489 730.6092770571436 -215.01448571533257 544.7753739611746C-314.18605061101624 358.94147086520593 -222.82595535456102 -51.418769211221615 -54.182996034977236 -177.6280838265626C114.4599632846066 -303.8373984419037 394.3742948719115 -126.83404478974683 594.4717190186684 -61.029336192461415C794.5691431654252 4.775372404823884 817.9600172473608 -81.65221418373665 906.2846398694548 138.23451744040858C994.6092624915489 358.1212490645539 1119.3557668557928 874.3977811047532 1018.4299076047196 994.4269756034366 "></path><path d="M874.6418212673846 154.59481623136458C957.4461549755974 360.73862712900075 1074.3960028170761 844.7478759166875 979.778009769195 957.2752457592035C885.1600167213139 1069.802615601719 661.3825627078772 782.5487699211935 420.4754546375543 694.7261914754395C179.5683465672314 606.9036130296854 -83.6027668786503 709.9461533720537 -176.57610896835376 535.7268692195828C-269.54945105805723 361.507585067112 -183.89936175513049 -23.205140004538748 -25.796587393020673 -141.52637245642103C132.30618696908914 -259.84760490830325 394.7258728321875 -93.90696085940624 582.317207969772 -32.21504654945119C769.9085431073568 29.476867760503865 791.8374875591712 -51.5489946662716 874.6418212673846 154.59481623136458C957.4461549755974 360.73862712900075 1074.3960028170761 844.7478759166875 979.778009769195 957.2752457592035 "></path><path d="M842.9990331828922 170.9551455398987C920.2830779772244 363.3560357110257 1029.4362692959378 815.0980012462 941.1261424512488 920.1235464325482C852.8160156065596 1025.1490916188961 643.957058527352 757.0455023170721 419.11042432838406 675.0777624343684C194.26379012941607 593.1100225516648 -51.362582420073636 689.2830602045419 -138.13770170379684 526.6783949955689C-224.91282098752004 364.07372978659623 -144.97273763812177 5.0085197197221305 2.589851766514016 -105.42463056870128C150.1524411711498 -215.85778085712468 395.0774813100418 -60.97984641148747 570.1627274384541 -3.400726388862722C745.2479735668662 54.17839363376197 765.71498838856 -21.445744631228536 842.9990331828922 170.9551455398987C920.2830779772244 363.3560357110257 1029.4362692959378 815.0980012462 941.1261424512488 920.1235464325482 "></path><path d="M811.3562145808219 187.3155053660107C883.1199704612732 365.9734748106289 984.4765052572211 785.4481570932908 902.4742446157243 882.9718776234708C820.4719839742272 980.4955981536514 626.5315238292487 731.542265230529 417.74536350163555 655.4293639108755C208.95920317402238 579.3164625912223 -19.122428479075097 668.6199975546078 -99.69932495681803 517.6299512891333C-180.27622143456102 366.63990502365846 -106.04614403869118 33.22220996156119 30.976260408470637 -69.32285816340345C167.99866485563246 -171.86792628836804 395.4290592703178 -28.05270144599058 558.0082163895577 25.41362428930381C720.5873735087976 78.87995002459809 739.5924587003703 8.657535921392707 811.3562145808219 187.3155053660107C883.1199704612732 365.9734748106289 984.4765052572211 785.4481570932908 902.4742446157243 882.9718776234708 "></path><path d="M779.7134264963292 203.67586519212296C845.9568934628999 368.59091391023185 939.516771736083 755.7983129403813 863.8223772977781 845.8202088143939C788.1279828594729 935.8421046884064 609.1060196487238 706.0390281439859 416.3803331924653 635.7809653873828C223.65464673620704 565.5229026307795 13.117755979501624 647.9569349046742 -61.26091769226116 508.58150758269744C-135.6395913640239 369.2060802607208 -67.11951992168247 61.435900203400195 59.36269956800538 -33.22108575810557C185.84491905769323 -127.87807171961134 395.78066774817194 4.874443519506258 545.8537358582396 54.22797496747029C695.9268039683072 103.58150641543432 713.4699595297589 38.76081647401395 779.7134264963292 203.67586519212296C845.9568934628999 368.59091391023185 939.516771736083 755.7983129403813 863.8223772977781 845.8202088143939 "></path><path d="M748.0706384118371 220.03616398307884C808.7938164645266 371.2082919746788 894.5570382149444 726.1484077523155 825.1705099798316 808.6684789701608C755.7839817447189 891.1885501880056 591.6805154681985 680.5357300222865 415.015302883295 616.1325058287338C238.3500902983916 551.7292816351808 45.35794043807829 627.2938112195842 -22.82251042770423 499.5330028411056C-91.00296129348675 371.7721944626269 -28.19289580467381 89.649529410083 87.74913872754007 2.880625612036056C203.6911732597539 -83.8882781860109 396.1322762260261 37.8015274498469 533.6992553269214 83.04226461048063C671.2662344278167 128.2830017711143 687.3474603591476 68.86403599147894 748.0706384118371 220.03616398307884C808.7938164645266 371.2082919746788 894.5570382149444 726.1484077523155 825.1705099798316 808.6684789701608 "></path><path d="M716.4279113625012 236.3965543267691C771.6308005013097 373.8257615918599 849.5973657289624 696.4985941169843 786.5187036970415 771.5168406786615C723.4400416651206 846.5350872403387 574.2550723228295 655.0325234533216 413.650333609281 596.484137822819C253.0455948957324 537.9357521923163 77.59818593181126 606.6307790872285 15.615957872008948 490.4845896522479C-46.36627018779336 374.33840021726735 10.733789347491154 117.86325016950019 116.13563892223101 38.98242853491206C221.53748849697092 -39.89839309967613 396.48394573903647 70.72870293292192 521.5448358307596 111.85664580622529C646.6057259224826 152.9845886795286 661.2250222236923 98.96734706167831 716.4279113625012 236.3965543267691C771.6308005013097 373.8257615918599 849.5973657289624 696.4985941169843 786.5187036970415 771.5168406786615 "></path><path d="M684.7851232780088 252.75691415288122C734.4677235029367 376.44320069146306 804.637632207824 666.848749964075 747.8668363790953 734.3651718695846C691.0960405503665 801.8815937750942 556.8295681423044 629.5292863667785 412.2853033001106 576.8357392993261C267.74103845791694 524.1421922318738 109.83837039038792 585.9677164372947 54.05436513656588 481.4361459458121C-1.7296401172561673 376.9045754543297 49.66041346449987 146.07694041133925 144.52207808176576 75.08420094020988C239.3837426990316 4.091461469080571 396.8355542168906 103.65584789841876 509.39035529944147 140.67099648439182C621.9451563819921 177.68614507036477 635.102523053081 129.0706276142995 684.7851232780088 252.75691415288122C734.4677235029367 376.44320069146306 804.637632207824 666.848749964075 747.8668363790953 734.3651718695846 "></path><path d="M653.1423351935165 269.1172434614152C697.3046465045635 379.0606092734879 759.6778986866855 637.1988752935875 709.2149690611488 697.2134725429293C658.7520394356122 757.2280697922711 539.4040639617792 604.0260187626573 410.92027299094036 557.1873102582551C282.4364820201015 510.348601753853 142.0785548489646 565.3046232697827 92.4927724011228 472.38767172179826C42.90698995328097 379.4707201738139 88.58703758150853 174.29060013560013 172.90851724130044 111.18594282792964C257.22999690109236 48.08128552025909 397.18716269474476 136.58296234633752 497.23587476812327 169.48531664498023C597.2845868415017 202.38767094362288 608.9800238824695 159.17387764934261 653.1423351935165 269.1172434614152C697.3046465045635 379.0606092734879 759.6778986866855 637.1988752935875 709.2149690611488 697.2134725429293 "></path><path d="M621.4995165914461 285.47757276994935C660.1415389886122 381.67801785551285 714.7181346479689 607.5490006231 670.5630712256244 660.0617732162741C626.4080078032798 712.5745458094481 521.978529263676 578.522751158536 409.55521216419197 537.5388812171842C297.13189506470803 496.5550112758324 174.31870878996318 544.641530102271 130.93114914810155 463.3391974977844C87.54358950623998 382.0368648932981 127.51363118093911 202.50425985986107 201.294925883257 147.28768471564933C275.0762205855749 92.07110957143766 397.5387406550209 169.5100767942563 485.08136371922706 198.29963680556864C572.6239867834331 227.08919681688099 582.85749419428 189.27712768438573 621.4995165914461 285.47757276994935C660.1415389886122 381.67801785551285 714.7181346479689 607.5490006231 670.5630712256244 660.0617732162741 "></path><path d="M589.8567132481646 301.8379325960615C622.9784467314499 384.2954569551159 669.7583858680415 577.8991564701906 631.911188648889 622.910104407197C594.0639914297365 667.9210523442032 504.5530098243619 553.019514071993 408.19016659623264 517.8904826936914C311.8273233681035 482.76145131538976 206.55887798975078 523.9784674523371 169.36954115386942 454.2907537913487C132.18020431798806 384.60304013036034 166.44024003915877 230.71795010170013 229.6813497840027 183.3894571209472C292.9224595288466 136.0609641401943 397.89033387408597 202.43722175975313 472.9268679291198 227.11398748373517C547.9634019841536 251.79075320771716 556.7349797648794 219.38040823700698 589.8567132481646 301.8379325960615C622.9784467314499 384.2954569551159 669.7583858680415 577.8991564701906 631.911188648889 622.910104407197 "></path><path d="M558.2139556812506 318.1982619045955C585.8154002506549 386.9128655371409 624.7986828644812 548.2492817997031 593.2593518485207 585.7584050805417C561.7200208325603 623.2675283613803 487.1275361614148 527.5162464678717 406.8251668046405 498.24205365262037C326.5227974478662 468.967860837369 238.79909296590563 503.3153742848251 207.80797893600447 445.2422795673349C176.81686490610332 387.16918484984467 205.3668946737456 258.93160982596106 258.0678194611155 219.49119900866697C310.76874424848546 180.05078819137287 398.24197286951824 235.3643362076719 460.7724179153797 255.92830764432358C523.3028629612413 276.4922790809752 530.6125111118462 249.4836582720501 558.2139556812506 318.1982619045955C585.8154002506549 386.9128655371409 624.7986828644812 548.2492817997031 593.2593518485207 585.7584050805417 "></path><path d="M526.5711523379691 334.5586217307076C548.6523079934927 389.53030463674395 579.8389340845537 518.5994376467938 554.6074692717854 548.6067362714646C529.376004459017 578.6140348961355 469.70201672210055 502.01300938132863 405.4601212366811 478.59365512912757C341.2182257512617 455.1743008769265 271.03926216569323 482.65231163489136 246.24637094177234 436.19383586089907C221.4534797178514 389.73536008690695 244.2935035319652 287.14530006780006 286.45424336186113 255.5929714139648C328.6149831917571 224.04064276012957 398.5935660885833 268.29148117316873 448.61792212527257 284.7426583224901C498.6422781619617 301.19383547181144 504.48999668244574 279.58693882467134 526.5711523379691 334.5586217307076C548.6523079934927 389.53030463674395 579.8389340845537 518.5994376467938 554.6074692717854 548.6067362714646 "></path><path d="M494.92836425347684 350.91896629803074C511.48923099511944 392.14772847755796 534.8792005634152 488.94957823509526 515.955601953839 511.4550522035985C497.03200334426276 533.9605261721016 452.27651254157547 476.5097570359965 404.09509092751085 458.9452413468457C355.9136693134463 441.38072565769494 303.27944662426995 461.98923372616855 284.68477820632927 427.14537689567436C266.09010978838853 392.30152006518017 283.2201276489739 315.35897505085006 314.8406825213959 291.6947285604736C346.46123739381784 268.03048207009715 398.9451745664375 301.21861087987656 436.4634415939544 313.5569937418676C473.9817086214714 325.8953766038586 478.36749751183424 309.69020411850346 494.92836425347684 350.91896629803074C511.48923099511944 392.14772847755796 534.8792005634152 488.94957823509526 515.955601953839 511.4550522035985 "></path><path d="M463.28557616898456 367.27932612414287C474.32615399674637 394.76516757716104 489.91946704227684 459.299734082186 477.3037346358927 474.30338339452135C464.6880022295085 489.30703270685683 434.8510083610503 451.0065199494534 402.73006061834053 439.29684282335285C370.60911287563084 427.5871656972523 335.5196310828466 441.32617107623474 323.12318547088614 418.0969331892386C310.7267398589257 394.8676953022425 322.14675176598263 343.5726652926891 343.22712168093057 327.7965009657715C364.30749159587856 312.02033663885385 399.29678304429166 334.14575584537346 424.3089610626363 342.3713444200341C449.32113908098086 350.5969329946948 452.24499834122287 339.7934846711247 463.28557616898456 367.27932612414287C474.32615399674637 394.76516757716104 489.91946704227684 459.299734082186 477.3037346358927 474.30338339452135 "></path><path d="M431.6427880844923 383.63965543267693C437.1630769983732 397.382576159186 444.95973352113845 429.64985941169846 438.6518673179463 437.15168406786614C432.3440011147543 444.6535087240339 417.42550418052514 425.50325234533216 401.36503030917027 419.64841378228186C385.30455643781545 413.7935752192316 367.75981554142334 420.6630779087228 361.56159273544307 409.04845896522477C355.36336992946286 397.4338400217267 361.0733758829913 371.78632501695 371.6135608404653 363.8982428534912C382.1537457979393 356.01016069003236 399.64839152214586 367.07287029329217 412.15448053131814 371.18566458062253C424.6605695404904 375.2984588679529 426.12249917061143 369.8967347061678 431.6427880844923 383.63965543267693C437.1630769983732 397.382576159186 444.95973352113845 429.64985941169846 438.6518673179463 437.15168406786614 "></path></g></svg>